<!-- Generator: Adobe Illustrator 17.0.0, SVG Export Plug-In  -->
<svg version="1.1"
	 xmlns="http://www.w3.org/2000/svg" xmlns:xlink="http://www.w3.org/1999/xlink" xmlns:a="http://ns.adobe.com/AdobeSVGViewerExtensions/3.0/"
	 x="0px" y="0px" width="182.25px" height="243px" viewBox="0 0 182.25 243" enable-background="new 0 0 182.25 243"
	 xml:space="preserve">
<defs>
</defs>
<g>
	<path fill="#226E75" d="M15.188,243h151.875c8.383,0,15.188-6.804,15.188-15.188V60.75c0-8.383-6.804-15.188-15.188-15.188h-30.451
		C136.247,20.336,116.048,0,91.125,0S46.003,20.336,45.638,45.562H15.188C6.804,45.562,0,52.367,0,60.75v167.062
		C0,236.196,6.804,243,15.188,243z M113.906,91.125H68.344c-4.192,0-7.594-3.402-7.594-7.594s3.402-7.594,7.594-7.594h45.562
		c4.192,0,7.594,3.402,7.594,7.594S118.098,91.125,113.906,91.125z M91.125,15.188c16.509,0,29.935,13.562,30.299,30.375H60.826
		C61.19,28.75,74.616,15.188,91.125,15.188z"/>
</g>
</svg>
