<!-- Generator: Adobe Illustrator 17.0.0, SVG Export Plug-In  -->
<svg version="1.1"
	 xmlns="http://www.w3.org/2000/svg" xmlns:xlink="http://www.w3.org/1999/xlink" xmlns:a="http://ns.adobe.com/AdobeSVGViewerExtensions/3.0/"
	 x="0px" y="0px" width="32px" height="32px" viewBox="0 0 32 32" enable-background="new 0 0 32 32" xml:space="preserve">
<defs>
</defs>
<path fill="#231F20" d="M32,10.946c-0.004-0.145-0.023-0.288-0.057-0.425l-2-8.957C29.739,0.65,28.927,0,27.991,0H4.008
	C3.072,0,2.26,0.65,2.056,1.564l-2.008,9c-0.035,0.159-0.051,0.32-0.047,0.48V30c0,1.104,0.896,2,2,2h28c1.105,0,2-0.896,2-2V11.007
	C32,10.987,32,10.967,32,10.946z M17,2h10.99L30,11H17V2z M2,30V11h0l2.008-9H15v9H2.001v1H30v18H2z"/>
</svg>
