<?xml version="1.0" encoding="utf-8"?> <!-- Generator: IcoMoon.io --> <!DOCTYPE svg PUBLIC "-//W3C//DTD SVG 1.1//EN" "http://www.w3.org/Graphics/SVG/1.1/DTD/svg11.dtd"> <svg width="16" height="16" viewBox="0 0 16 16" xmlns="http://www.w3.org/2000/svg" xmlns:xlink="http://www.w3.org/1999/xlink" fill="#FFFFFF"><g><path d="M 6.608,4.032C 6.417,1.835, 4.125,0.757, 4.028,0.713C 3.937,0.67, 3.835,0.657, 3.737,0.674 c-2.646,0.439-3.044,1.979-3.060,2.043C 0.655,2.807, 0.659,2.9, 0.687,2.987c 3.156,9.792, 9.715,11.607, 11.871,12.204 c 0.166,0.046, 0.303,0.083, 0.407,0.117c 0.050,0.017, 0.102,0.024, 0.154,0.024c 0.071,0, 0.142-0.015, 0.207-0.045 c 0.066-0.030, 1.624-0.764, 2.005-3.158c 0.017-0.104,0-0.212-0.048-0.306c-0.034-0.066-0.849-1.617-3.109-2.165 c-0.158-0.041-0.32,0.001-0.442,0.105c-0.713,0.609-1.698,1.258-2.123,1.325c-2.849-1.393-4.44-4.066-4.5-4.573 C 5.074,6.23, 5.727,5.229, 6.478,4.415C 6.573,4.312, 6.621,4.172, 6.608,4.032z"></path></g></svg>