<?xml version="1.0" encoding="utf-8"?> <!-- Generator: IcoMoon.io --> <!DOCTYPE svg PUBLIC "-//W3C//DTD SVG 1.1//EN" "http://www.w3.org/Graphics/SVG/1.1/DTD/svg11.dtd"> <svg width="16" height="16" viewBox="0 0 16 16" xmlns="http://www.w3.org/2000/svg" xmlns:xlink="http://www.w3.org/1999/xlink" fill="#000000"><g><path d="M 8.5,1C 4.358,1, 1,4.358, 1,8.5S 4.358,16, 8.5,16S 16,12.642, 16,8.5S 12.642,1, 8.5,1z M 8.5,15 C 4.916,15, 2,12.084, 2,8.5S 4.916,2, 8.5,2S 15,4.916, 15,8.5S 12.084,15, 8.5,15zM 11.268,5.025L 8.519,7.774L 6.054,5.025c-0.195-0.195-0.512-0.195-0.707,0c-0.195,0.195-0.195,0.512,0,0.707 l 2.466,2.749l-2.787,2.787c-0.195,0.195-0.195,0.512,0,0.707c 0.195,0.195, 0.512,0.195, 0.707,0l 2.749-2.749l 2.466,2.749 c 0.195,0.195, 0.512,0.195, 0.707,0s 0.195-0.512,0-0.707L 9.188,8.519l 2.787-2.787c 0.195-0.195, 0.195-0.512,0-0.707 C 11.78,4.83, 11.463,4.83, 11.268,5.025z"></path></g></svg>