<!-- Generator: Adobe Illustrator 17.0.0, SVG Export Plug-In  -->
<svg version="1.1"
	 xmlns="http://www.w3.org/2000/svg" xmlns:xlink="http://www.w3.org/1999/xlink" xmlns:a="http://ns.adobe.com/AdobeSVGViewerExtensions/3.0/"
	 x="0px" y="0px" width="32px" height="32px" viewBox="0 0 32 32" enable-background="new 0 0 32 32" xml:space="preserve">
<defs>
</defs>
<g>
	<path fill="#333333" d="M27,11c0-2-1-3-4-3h-6v7h10V11z"/>
	<path fill="#333333" d="M11,6h10c0.552,0,1-0.448,1-1s-0.448-1-1-1H11c-0.552,0-1,0.448-1,1S10.448,6,11,6z"/>
	<path fill="#333333" d="M23,0H9C3.028,0,0,2.691,0,8v17c0,1.104,0.895,2,2,2v1.198C2,30.364,3.719,31.999,5.998,32
		C8.28,32,10,30.366,10,28.198V27h12v1.198c0,2.166,1.719,3.801,3.998,3.802C28.28,32,30,30.366,30,28.198V27c1.104,0,2-0.896,2-2V8
		C32,2.692,28.972,0.001,23,0z M8,28.198C8,29.399,6.999,30,5.999,30C4.999,30,4,29.399,4,28.198V26h4V28.198z M28,28.198
		C28,29.399,26.999,30,25.999,30c-1,0-1.999-0.601-1.999-1.802V26h4V28.198z M30,25H2V8c0-4,2-6,7-6h14c5,0,7,2.001,7,6V25z"/>
	<circle fill="#231F20" cx="26" cy="20" r="2"/>
	<path fill="#333333" d="M5,11.001V15h10V8H9C6,8,5,9,5,11.001z"/>
	<circle fill="#333333" cx="5.968" cy="20" r="2"/>
</g>
</svg>
