<?xml version="1.0" encoding="utf-8"?> <!-- Generator: IcoMoon.io --> <!DOCTYPE svg PUBLIC "-//W3C//DTD SVG 1.1//EN" "http://www.w3.org/Graphics/SVG/1.1/DTD/svg11.dtd"> <svg width="16" height="16" viewBox="0 0 16 16" xmlns="http://www.w3.org/2000/svg" xmlns:xlink="http://www.w3.org/1999/xlink" fill="#000000"><g><path d="M 11.391,6.9L 8.5,9.791L 5.609,6.9c-0.195-0.195-0.512-0.195-0.707,0c-0.195,0.195-0.195,0.512,0,0.707 l 3.243,3.243c 0.098,0.098, 0.227,0.147, 0.355,0.146c 0.129,0, 0.257-0.048, 0.355-0.146l 3.243-3.243c 0.195-0.195, 0.195-0.512,0-0.707 C 11.903,6.705, 11.586,6.705, 11.391,6.9zM 8.536,1.071c-4.122,0-7.464,3.342-7.464,7.464C 1.071,12.658, 4.413,16, 8.536,16 C 12.658,16, 16,12.658, 16,8.536C 16,4.413, 12.658,1.071, 8.536,1.071z M 8.536,15c-3.564,0-6.464-2.9-6.464-6.464 c0-3.564, 2.9-6.464, 6.464-6.464C 12.1,2.071, 15,4.971, 15,8.536C 15,12.1, 12.1,15, 8.536,15z"></path></g></svg>