<!-- Generator: Adobe Illustrator 17.0.0, SVG Export Plug-In  -->
<svg version="1.1"
	 xmlns="http://www.w3.org/2000/svg" xmlns:xlink="http://www.w3.org/1999/xlink" xmlns:a="http://ns.adobe.com/AdobeSVGViewerExtensions/3.0/"
	 x="0px" y="0px" width="32px" height="32px" viewBox="0 0 32 32" enable-background="new 0 0 32 32" xml:space="preserve">
<defs>
</defs>
<path id="award_x5F_ribbon_1_" fill="#333333" d="M16,2l2.166,1.251h2.502l1.25,2.164l2.166,1.252v2.501l1.248,2.167L24.084,13.5V16
	l-2.166,1.25l-1.25,2.166h-2.502L16,20.667l-2.164-1.251h-2.502l-1.25-2.166L7.918,16v-2.5l-1.25-2.166l1.25-2.167V6.667
	l2.166-1.252l1.25-2.164h2.502L16,2 M15.912,17.651c3.424,0,6.211-2.786,6.211-6.21c0-3.426-2.787-6.211-6.211-6.211
	s-6.209,2.785-6.209,6.211C9.703,14.865,12.488,17.651,15.912,17.651 M15.912,6.253c2.861,0,5.189,2.327,5.189,5.188
	c0,2.859-2.327,5.187-5.189,5.187c-2.859,0-5.187-2.328-5.187-5.187C10.726,8.58,13.053,6.253,15.912,6.253 M25.121,16.505
	L30,26.204l-4.938-0.417L22.455,30l-4.625-9.192l0.613-0.355h2.822l0.299-0.517l1.111-1.925l1.926-1.113l0.519-0.299V16.505
	 M6.881,16.505v0.093L7.4,16.897l1.924,1.113l1.111,1.925l0.301,0.517h2.82l0.613,0.354L9.547,30L6.94,25.787L2,26.204L6.881,16.505
	 M16,0c-0.346,0-0.691,0.089-1.001,0.269L13.3,1.251h-1.966c-0.715,0-1.375,0.381-1.732,0.999L8.62,3.951L6.917,4.935
	C6.299,5.292,5.918,5.952,5.918,6.667v1.965l-0.983,1.703c-0.356,0.619-0.356,1.38,0,1.999l0.983,1.702l-5.704,11.27
	c-0.326,0.647-0.276,1.419,0.129,2.019c0.374,0.553,0.997,0.88,1.657,0.88c0.056,0,0.111-0.002,0.168-0.007l3.717-0.313l1.962,3.169
	C8.212,31.643,8.856,32,9.547,32c0.029,0,0.059,0,0.088-0.002c0.724-0.032,1.373-0.453,1.699-1.1l4.171-8.294
	c0.162,0.042,0.329,0.062,0.495,0.062c0.166,0,0.333-0.021,0.495-0.062l4.174,8.294c0.325,0.647,0.975,1.067,1.698,1.099
	C22.397,32,22.426,32,22.455,32c0.69,0,1.335-0.357,1.7-0.947l1.962-3.169l3.715,0.313c0.056,0.005,0.112,0.007,0.168,0.007
	c0.66,0,1.283-0.327,1.657-0.88c0.405-0.6,0.455-1.372,0.13-2.019l-5.703-11.27l0.98-1.703c0.356-0.618,0.356-1.379,0.001-1.997
	l-0.981-1.703V6.667c0-0.714-0.381-1.375-0.999-1.732l-1.703-0.983L22.399,2.25c-0.356-0.619-1.017-0.999-1.731-0.999h-1.966
	L17,0.268C16.69,0.089,16.346,0,16,0L16,0z"/>
</svg>
