<!-- Generator: Adobe Illustrator 17.0.0, SVG Export Plug-In  -->
<svg version="1.1"
	 xmlns="http://www.w3.org/2000/svg" xmlns:xlink="http://www.w3.org/1999/xlink" xmlns:a="http://ns.adobe.com/AdobeSVGViewerExtensions/3.0/"
	 x="0px" y="0px" width="31.999px" height="32px" viewBox="0 0 31.999 32" enable-background="new 0 0 31.999 32"
	 xml:space="preserve">
<defs>
</defs>
<g>
	<path fill="#231F20" d="M20.833,0h-9.5C5.084,0,0,5.084,0,11.333v2.421c0,5.753,4.377,10.512,10,11.169V30
		c0,0.822,0.503,1.56,1.269,1.861C11.506,31.955,11.754,32,11.999,32c0.545,0,1.08-0.224,1.466-0.639L19.376,25h1.29
		c6.25,0,11.333-5.045,11.333-11.246v-2.421C31.999,4.978,27.095,0,20.833,0z M30,13.754C30,18.908,25.822,23,20.666,23h-2.162
		L12,30v-7h-0.667C6.177,23,2,18.908,2,13.754v-2.421C2,6.179,6.177,2,11.333,2h9.5C25.988,2,30,6.179,30,11.333V13.754z"/>
	<path fill="#231F20" d="M16.301,5C13.961,5,12.22,6.059,11,7.362l1.8,2.139c0.9-0.978,1.981-1.711,3.501-1.711
		c1.7,0,2.38,0.55,2.38,1.486c0,0.734-0.3,1.061-1.3,1.528C15.121,11.864,15,13.065,15,15h2c0.06-1.201,0.782-1.67,2.462-2.484
		c0.961-0.469,2.021-1.467,2.021-3.361C21.482,6.323,19.362,5,16.301,5z"/>
	<path fill="#231F20" d="M16,17c-0.812,0-1.5,0.688-1.5,1.5S15.188,20,16,20c0.811,0,1.5-0.688,1.5-1.5S16.811,17,16,17z"/>
</g>
</svg>
