<?xml version="1.0" encoding="utf-8"?> <!-- Generator: IcoMoon.io --> <!DOCTYPE svg PUBLIC "-//W3C//DTD SVG 1.1//EN" "http://www.w3.org/Graphics/SVG/1.1/DTD/svg11.dtd"> <svg width="16" height="16" viewBox="0 0 16 16" xmlns="http://www.w3.org/2000/svg" xmlns:xlink="http://www.w3.org/1999/xlink" fill="#ee9200"><g><path d="M 8,0C 5.196,0, 2.923,2.273, 2.923,5.077L 2.923,6 L 2,6 C 1.448,6, 1,6.448, 1,7l0,8 c0,0.552, 0.448,1, 1,1l 12,0 c 0.552,0, 1-0.448, 1-1L 15,7 c0-0.552-0.448-1-1-1l-0.923,0 L 13.077,5.077 C 13.077,2.273, 10.804,0, 8,0z M 4.923,5.077C 4.923,3.38, 6.303,2, 8,2 s 3.077,1.38, 3.077,3.077L 11.077,6 L 4.923,6 L 4.923,5.077 z M 8,13c-1.105,0-2-0.895-2-2c0-1.105, 0.895-2, 2-2s 2,0.895, 2,2C 10,12.105, 9.105,13, 8,13z"></path></g></svg>