<!-- Generator: Adobe Illustrator 17.0.0, SVG Export Plug-In  -->
<svg version="1.1"
	 xmlns="http://www.w3.org/2000/svg" xmlns:xlink="http://www.w3.org/1999/xlink" xmlns:a="http://ns.adobe.com/AdobeSVGViewerExtensions/3.0/"
	 x="0px" y="0px" width="32px" height="32px" viewBox="0 0 32 32" enable-background="new 0 0 32 32" xml:space="preserve">
<defs>
</defs>
<path fill="#333333" d="M16,0C7.162,0,0,7.162,0,16s7.162,16,16,16c8.838,0,16-7.162,16-16S24.838,0,16,0z M18.443,2.731
	c0.977,0.179,1.935,0.456,2.86,0.852c3.211,1.372,5.736,3.896,7.111,7.108c0.396,0.925,0.675,1.885,0.854,2.867l-7.559,0.6
	c-0.59-1.831-2.035-3.277-3.867-3.868L18.443,2.731z M22.001,15.916l-0.004,0.007c0-0.005-0.001-0.01-0.001-0.015L22.001,15.916z
	 M15.917,10l0.007,0.004c-0.005,0-0.01,0.001-0.015,0.001L15.917,10z M3.587,10.691C4.962,7.481,7.488,4.956,10.7,3.583
	c0.924-0.395,1.881-0.672,2.858-0.852l0.601,7.56c-1.831,0.591-3.276,2.037-3.867,3.867l-7.561-0.601
	C2.912,12.578,3.189,11.618,3.587,10.691z M10.005,15.932c0,0.004-0.001,0.008-0.001,0.011l-0.003-0.005L10.005,15.932z
	 M13.56,29.265c-0.979-0.178-1.941-0.453-2.861-0.848c-3.215-1.375-5.742-3.903-7.117-7.119c-0.395-0.924-0.671-1.88-0.85-2.855
	l7.561-0.601c0.591,1.83,2.036,3.276,3.867,3.867L13.56,29.265z M15.938,22l-0.006-0.004c0.004,0,0.008,0.001,0.012,0.001L15.938,22
	z M11.001,16c0-2.757,2.243-5,5.001-5c2.757,0,4.999,2.243,4.999,5s-2.242,5-4.999,5C13.244,21,11.001,18.757,11.001,16z
	 M28.421,21.298c-1.375,3.217-3.902,5.745-7.115,7.119c-0.921,0.395-1.884,0.67-2.863,0.848l-0.6-7.555
	c1.832-0.591,3.277-2.037,3.867-3.868l7.559,0.6C29.091,19.42,28.814,20.377,28.421,21.298z"/>
</svg>
