<?xml version="1.0" encoding="utf-8"?> <!-- Generator: IcoMoon.io --> <!DOCTYPE svg PUBLIC "-//W3C//DTD SVG 1.1//EN" "http://www.w3.org/Graphics/SVG/1.1/DTD/svg11.dtd"> <svg width="16" height="16.006000518798828" viewBox="0 0 16 16.006000518798828" xmlns="http://www.w3.org/2000/svg" xmlns:xlink="http://www.w3.org/1999/xlink" fill="#FFFFFF"><g><path d="M 14.54,0c-0.006,0-0.012,0-0.018,0c-0.003,0-0.006,0-0.009,0c-0.001,0-0.002,0-0.003,0 c-0.005,0-0.009,0-0.013,0c-0.002,0-0.004,0-0.006,0L 9.203,0 C 9.050,0.008, 8.702,0.247, 8.657,0.292L 2.292,6.656 c-0.39,0.39-0.39,1.022,0,1.412l 0.794,0.794L 2.292,9.656c-0.39,0.39-0.39,1.022,0,1.412l 4.646,4.646 c 0.195,0.195, 0.45,0.292, 0.706,0.292c 0.255,0, 0.511-0.097, 0.706-0.292l 6.364-6.365C 14.76,9.304, 15,8.996, 15,8.804L 15,0.497 C 15.014,0.218, 14.814,0, 14.54,0z M 14.011,8.635c-0.003,0.005-0.005,0.008-0.004,0.008c0,0,0,0,0,0l-6.362,6.365l-4.646-4.644 l 0.794-0.794l 3.145,3.145c 0.195,0.195, 0.45,0.292, 0.706,0.292c 0.255,0, 0.511-0.097, 0.706-0.292l 5.661-5.661L 14.011,8.635 z M 14.011,4l0,1.635 c-0.003,0.005-0.005,0.008-0.004,0.008l0,0c0,0,0,0,0,0l-6.362,6.365L 2.999,7.364l 6.322-6.321C 9.34,1.029, 9.363,1.014, 9.386,1 l 4.625,0 L 14.011,4 zM 12.011,2.496A0.5,0.5 720 1 0 13.011,2.496A0.5,0.5 720 1 0 12.011,2.496z"></path></g></svg>