<!-- Generator: Adobe Illustrator 17.0.0, SVG Export Plug-In  -->
<svg version="1.1"
	 xmlns="http://www.w3.org/2000/svg" xmlns:xlink="http://www.w3.org/1999/xlink" xmlns:a="http://ns.adobe.com/AdobeSVGViewerExtensions/3.0/"
	 x="0px" y="0px" width="26.001px" height="25.952px" viewBox="0 0 26.001 25.952" enable-background="new 0 0 26.001 25.952"
	 xml:space="preserve">
<defs>
</defs>
<path fill="#5DBCC4" d="M25.98,4.204c-0.078-0.535-0.37-1.017-0.81-1.333l-3.455-2.493C21.362,0.123,20.952,0,20.546,0
	c-0.596,0-1.185,0.266-1.578,0.771L7.587,15.362L5.55,13.959c-0.336-0.232-0.732-0.353-1.135-0.353
	c-0.121,0-0.242,0.011-0.362,0.033c-0.522,0.096-0.984,0.396-1.285,0.833l-2.415,3.508c-0.626,0.909-0.396,2.154,0.513,2.78
	l7.021,4.839c0.346,0.238,0.741,0.354,1.134,0.354c0.601,0,1.193-0.27,1.586-0.78L25.585,5.713
	C25.915,5.284,26.058,4.74,25.98,4.204z M9.022,23.952L2,19.113l2.415-3.508l3.59,2.474L20.545,2L24,4.493L9.022,23.952z"/>
</svg>
