<!-- Generator: Adobe Illustrator 17.0.0, SVG Export Plug-In  -->
<svg version="1.1"
	 xmlns="http://www.w3.org/2000/svg" xmlns:xlink="http://www.w3.org/1999/xlink" xmlns:a="http://ns.adobe.com/AdobeSVGViewerExtensions/3.0/"
	 x="0px" y="0px" width="32px" height="32px" viewBox="0 0 32 32" enable-background="new 0 0 32 32" xml:space="preserve">
<defs>
</defs>
<g>
	<circle fill="#c04a4a" cx="12.37" cy="11.506" r="1.867"/>
	<circle fill="#c04a4a" cx="19.63" cy="11.506" r="1.867"/>
	<path fill="#c04a4a" d="M16.021,17.796c-3.702,0-6.948,2.056-8.27,5.238l1.916,0.797c0.999-2.407,3.493-3.962,6.354-3.962
		c2.793,0,5.273,1.561,6.317,3.975l1.904-0.823C22.87,19.846,19.644,17.796,16.021,17.796z"/>
	<path fill="#c04a4a" d="M16.001,0C7.178,0,0,7.178,0,16s7.178,16,16.001,16C24.823,32,32,24.822,32,16S24.823,0,16.001,0z
		 M16.001,30C8.268,30,2,23.731,2,16C2,8.268,8.268,2,16.001,2C23.732,2,30,8.268,30,16C30,23.731,23.732,30,16.001,30z"/>
</g>
</svg>
