<?xml version="1.0" encoding="utf-8"?> <!-- Generator: IcoMoon.io --> <!DOCTYPE svg PUBLIC "-//W3C//DTD SVG 1.1//EN" "http://www.w3.org/Graphics/SVG/1.1/DTD/svg11.dtd"> <svg width="16" height="16" viewBox="0 0 16 16" xmlns="http://www.w3.org/2000/svg" xmlns:xlink="http://www.w3.org/1999/xlink" fill="#000000"><g><path d="M 8.855,6.15C 8.757,6.052, 8.629,6.004, 8.5,6.004c-0.129,0-0.257,0.048-0.355,0.146L 4.902,9.393 c-0.195,0.195-0.195,0.512,0,0.707c 0.195,0.195, 0.512,0.195, 0.707,0L 8.5,7.209l 2.891,2.891c 0.195,0.195, 0.512,0.195, 0.707,0 c 0.195-0.195, 0.195-0.512,0-0.707L 8.855,6.15zM 8.533,1.067c-4.124,0-7.467,3.343-7.467,7.467S 4.41,16, 8.533,16S 16,12.657, 16,8.533 S 12.657,1.067, 8.533,1.067z M 8.533,15c-3.566,0-6.467-2.901-6.467-6.467s 2.901-6.467, 6.467-6.467S 15,4.968, 15,8.533 S 12.099,15, 8.533,15z"></path></g></svg>