<?xml version="1.0" encoding="utf-8"?> <!-- Generator: IcoMoon.io --> <!DOCTYPE svg PUBLIC "-//W3C//DTD SVG 1.1//EN" "http://www.w3.org/Graphics/SVG/1.1/DTD/svg11.dtd"> <svg width="16" height="16" viewBox="0 0 16 16" xmlns="http://www.w3.org/2000/svg" xmlns:xlink="http://www.w3.org/1999/xlink" fill="#ffffff"><g><path d="M 8,0C 3.582,0,0,3.582,0,8s 3.582,8, 8,8s 8-3.582, 8-8C 16,3.581, 12.418,0, 8,0z M 10.068,7.999L 8.757,8 l-0.001,4.8L 6.957,12.8 L 6.957,8 l-1.2,0 L 5.757,6.346 l 1.2-0.001L 6.955,5.371C 6.955,4.021, 7.321,3.2, 8.91,3.2l 1.324,0 l0,1.655 L 9.406,4.855 c-0.619,0-0.649,0.231-0.649,0.662L 8.755,6.345l 1.488,0 L 10.068,7.999z"></path></g></svg>