<?xml version="1.0" encoding="utf-8"?> <!-- Generator: IcoMoon.io --> <!DOCTYPE svg PUBLIC "-//W3C//DTD SVG 1.1//EN" "http://www.w3.org/Graphics/SVG/1.1/DTD/svg11.dtd"> <svg width="16" height="16" viewBox="0 0 16 16" xmlns="http://www.w3.org/2000/svg" xmlns:xlink="http://www.w3.org/1999/xlink" fill="#FFFFFF"><g><path d="M 8,0C 3.582,0,0,3.582,0,8s 3.582,8, 8,8s 8-3.582, 8-8C 16,3.581, 12.418,0, 8,0z M 8.624,10.163 c-0.585-0.045-0.83-0.335-1.288-0.614c-0.252,1.322-0.56,2.59-1.472,3.251C 5.582,10.803, 6.277,9.303, 6.6,7.71 C 6.050,6.783, 6.666,4.92, 7.826,5.379c 1.427,0.565-1.237,3.443, 0.552,3.802c 1.867,0.376, 2.63-3.24, 1.472-4.416 c-1.674-1.698-4.87-0.039-4.477,2.392c 0.096,0.594, 0.709,0.774, 0.245,1.595C 4.547,8.515, 4.227,7.67, 4.268,6.544 c 0.066-1.843, 1.656-3.133, 3.251-3.312c 2.017-0.226, 3.909,0.74, 4.171,2.637C 11.985,8.010, 10.78,10.33, 8.624,10.163z"></path></g></svg>