<?xml version="1.0" encoding="utf-8"?> <!-- Generator: IcoMoon.io --> <!DOCTYPE svg PUBLIC "-//W3C//DTD SVG 1.1//EN" "http://www.w3.org/Graphics/SVG/1.1/DTD/svg11.dtd"> <svg width="16" height="16" viewBox="0 0 16 16" xmlns="http://www.w3.org/2000/svg" xmlns:xlink="http://www.w3.org/1999/xlink" fill="#FFFFFF"><g><path d="M 8,0C 3.582,0,0,3.582,0,8s 3.582,8, 8,8s 8-3.582, 8-8C 16,3.581, 12.418,0, 8,0z M 11.98,6.204 c 0.004,0.085, 0.006,0.17, 0.006,0.255c0,2.603-1.981,5.604-5.604,5.604c-1.112,0-2.147-0.326-3.019-0.885 c 0.154,0.018, 0.311,0.028, 0.47,0.028c 0.923,0, 1.772-0.315, 2.446-0.843c-0.862-0.016-1.589-0.586-1.84-1.368 C 4.56,9.018, 4.682,9.030, 4.81,9.030c 0.18,0, 0.354-0.024, 0.519-0.069C 4.428,8.78, 3.749,7.984, 3.749,7.030c0-0.008,0-0.016,0-0.025 c 0.266,0.148, 0.569,0.236, 0.892,0.247C 4.113,6.899, 3.765,6.296, 3.765,5.613c0-0.361, 0.097-0.699, 0.266-0.99 c 0.971,1.192, 2.423,1.976, 4.060,2.058C 8.057,6.537, 8.040,6.386, 8.040,6.232c0-1.087, 0.882-1.969, 1.97-1.969 c 0.566,0, 1.078,0.239, 1.438,0.622c 0.449-0.089, 0.871-0.253, 1.251-0.478c-0.147,0.46-0.459,0.846-0.866,1.090 c 0.398-0.047, 0.778-0.154, 1.131-0.31C 12.7,5.581, 12.365,5.928, 11.98,6.204z"></path></g></svg>