<?xml version="1.0" encoding="utf-8"?> <!-- Generator: IcoMoon.io --> <!DOCTYPE svg PUBLIC "-//W3C//DTD SVG 1.1//EN" "http://www.w3.org/Graphics/SVG/1.1/DTD/svg11.dtd"> <svg width="16" height="16" viewBox="0 0 16 16" xmlns="http://www.w3.org/2000/svg" xmlns:xlink="http://www.w3.org/1999/xlink" fill="#FFFFFF"><g><path d="M 8,0C 3.582,0,0,3.582,0,8s 3.582,8, 8,8s 8-3.582, 8-8C 16,3.581, 12.418,0, 8,0z M 12.752,5.823 c-0.537,3.022-3.534,5.581-4.435,6.165c-0.902,0.584-1.724-0.234-2.023-0.853C 5.953,10.429, 4.93,6.602, 4.662,6.285 C 4.394,5.968, 3.59,6.602, 3.59,6.602L 3.2,6.091c0,0, 1.633-1.949, 2.875-2.194C 7.392,3.638, 7.39,5.92, 7.707,7.186 c 0.307,1.225, 0.512,1.926, 0.78,1.926c 0.268,0, 0.78-0.683, 1.34-1.73c 0.562-1.048-0.024-1.974-1.121-1.316 C 9.146,3.435, 13.288,2.802, 12.752,5.823z"></path></g></svg>